<svg xmlns="http://www.w3.org/2000/svg" viewBox="0 0 160 160" width="160" height="160">
  <!--
    CAI mascot redesign
    PocketStation-inspired handheld memory companion.
  -->

  <rect width="160" height="160" rx="36" fill="none"/>

  <!-- Device body -->
  <rect x="52" y="18" width="56" height="6" fill="#F2F4F7"/>
  <rect x="42" y="24" width="76" height="8" fill="#E7EAEE"/>
  <rect x="34" y="32" width="92" height="10" fill="#E1E4E8"/>
  <rect x="30" y="42" width="100" height="14" fill="#D9DDE2"/>
  <rect x="28" y="56" width="104" height="20" fill="#D4D8DE"/>
  <rect x="30" y="76" width="100" height="18" fill="#D9DDE2"/>
  <rect x="34" y="94" width="92" height="18" fill="#E1E4E8"/>
  <rect x="42" y="112" width="76" height="12" fill="#E7EAEE"/>

  <!-- Top loop -->
  <rect x="68" y="14" width="24" height="4" fill="#9AA1AA"/>
  <rect x="72" y="10" width="16" height="4" fill="#9AA1AA"/>

  <!-- Screen bezel -->
  <rect x="46" y="38" width="68" height="8" fill="#AEB5BE"/>
  <rect x="40" y="46" width="80" height="10" fill="#AEB5BE"/>
  <rect x="38" y="56" width="84" height="18" fill="#AEB5BE"/>
  <rect x="40" y="74" width="80" height="8" fill="#AEB5BE"/>

  <!-- Screen -->
  <rect x="48" y="46" width="64" height="8" fill="#CBD7E6"/>
  <rect x="44" y="54" width="72" height="18" fill="#CBD7E6"/>
  <rect x="48" y="72" width="64" height="4" fill="#CBD7E6"/>

  <!-- Face on screen -->
  <rect x="56" y="56" width="14" height="10" fill="#2B3138"/>
  <rect x="90" y="56" width="14" height="10" fill="#2B3138"/>
  <rect x="60" y="58" width="6" height="4" fill="#F8FCFF"/>
  <rect x="94" y="58" width="6" height="4" fill="#F8FCFF"/>
  <rect x="62" y="62" width="4" height="2" fill="#F8FCFF"/>
  <rect x="96" y="62" width="4" height="2" fill="#F8FCFF"/>
  <rect x="74" y="66" width="2" height="2" fill="#2B3138"/>
  <rect x="84" y="66" width="2" height="2" fill="#2B3138"/>
  <rect x="76" y="68" width="8" height="2" fill="#2B3138"/>

  <!-- Blush accents -->
  <rect x="42" y="68" width="4" height="4" fill="#F7B4A4"/>
  <rect x="114" y="68" width="4" height="4" fill="#F7B4A4"/>
</svg>
